<?xml version="1.0" standalone="no"?>
<!DOCTYPE svg PUBLIC "-//W3C//DTD SVG 20010904//EN"
 "http://www.w3.org/TR/2001/REC-SVG-20010904/DTD/svg10.dtd">
<svg version="1.0" xmlns="http://www.w3.org/2000/svg"
 width="500.000000pt" height="500.000000pt" viewBox="0 0 500.000000 500.000000"
 preserveAspectRatio="xMidYMid meet">
<metadata>
Created by potrace 1.14, written by Peter Selinger 2001-2017
</metadata>
<g transform="translate(0.000000,500.000000) scale(0.100000,-0.100000)"
fill="#000000" stroke="none">
<path d="M2205 4884 c-223 -34 -390 -78 -575 -152 -427 -170 -799 -475 -1061
-870 -196 -296 -319 -623 -370 -987 -19 -138 -16 -493 5 -610 2 -11 7 -42 10
-68 9 -57 10 -61 30 -147 175 -735 696 -1341 1396 -1622 172 -69 385 -126 530
-143 30 -3 68 -8 84 -11 48 -10 355 -11 451 -2 80 7 145 16 240 34 335 61 711
235 1000 461 102 80 320 305 402 414 202 270 361 614 418 904 37 186 47 276
50 445 5 301 -26 513 -115 781 -112 342 -295 641 -543 891 -203 205 -392 342
-638 461 -216 106 -397 166 -604 201 -49 8 -106 18 -125 21 -73 14 -493 13
-585 -1z m547 -115 c29 -5 68 -11 86 -14 17 -3 49 -7 70 -11 20 -3 73 -14 117
-25 571 -143 1059 -505 1364 -1012 161 -267 266 -589 298 -907 14 -145 8 -429
-12 -545 -3 -16 -10 -57 -16 -90 -29 -164 -121 -433 -197 -575 -97 -179 -152
-263 -268 -405 -307 -377 -753 -650 -1228 -751 -76 -16 -127 -25 -171 -29 -27
-3 -84 -9 -125 -14 -82 -9 -318 -7 -390 3 -25 4 -63 9 -85 12 -353 45 -718
197 -1024 427 -119 90 -328 296 -408 402 -237 315 -385 663 -438 1032 -26 184
-26 496 0 643 3 14 7 41 10 60 27 168 103 398 190 575 308 628 903 1082 1575
1200 179 32 521 44 652 24z"/>
<path d="M2626 4672 c-13 -12 -5 -30 15 -35 26 -7 51 2 46 16 -4 13 -53 28
-61 19z"/>
<path d="M2800 4636 c0 -14 56 -33 67 -22 3 3 3 12 0 21 -8 20 -67 21 -67 1z"/>
<path d="M2987 4613 c-13 -13 -7 -24 20 -34 29 -11 55 3 38 20 -15 13 -50 22
-58 14z"/>
<path d="M3162 4561 c-6 -3 -8 -12 -4 -18 10 -16 58 -27 66 -15 11 18 -42 46
-62 33z"/>
<path d="M2417 4554 c-1 -1 -42 -4 -92 -8 -271 -18 -591 -123 -840 -275 -385
-234 -679 -591 -835 -1011 -32 -87 -76 -245 -86 -310 -3 -25 -12 -81 -19 -125
-15 -95 -12 -428 5 -525 6 -36 13 -78 16 -95 9 -56 55 -218 88 -309 163 -450
513 -842 950 -1066 375 -191 760 -254 1201 -194 158 21 420 106 585 189 144
73 327 199 445 308 l60 55 -24 26 c-14 14 -27 26 -30 26 -3 0 -33 -25 -66 -56
-252 -232 -569 -390 -923 -461 -121 -24 -159 -28 -332 -28 -231 0 -280 5 -465
50 -669 159 -1213 694 -1385 1360 -48 186 -60 295 -56 525 3 173 8 224 30 325
127 595 514 1087 1056 1343 145 68 378 140 505 156 22 2 63 8 90 11 42 6 88 9
188 14 13 1 17 10 17 39 0 38 0 38 -41 37 -22 0 -41 -1 -42 -1z"/>
<path d="M3330 4486 c0 -19 37 -39 58 -31 13 5 14 8 1 19 -23 23 -59 30 -59
12z"/>
<path d="M3494 4408 c-8 -13 33 -51 49 -45 23 7 17 27 -12 41 -22 12 -32 13
-37 4z"/>
<path d="M1420 4377 c-26 -13 -33 -38 -14 -44 17 -6 55 30 46 44 -6 9 -13 9
-32 0z"/>
<path d="M2668 4359 c-10 -5 -18 -18 -18 -28 0 -32 21 -41 125 -56 65 -9 241
-54 309 -80 72 -27 101 -19 94 25 -4 28 -64 54 -213 95 -88 24 -109 28 -190
40 -22 4 -51 8 -65 10 -14 2 -33 0 -42 -6z"/>
<path d="M3652 4304 c2 -9 13 -23 25 -31 21 -14 23 -14 30 2 4 12 0 23 -12 31
-26 19 -47 18 -43 -2z"/>
<path d="M1262 4274 c-23 -16 -30 -44 -11 -44 20 0 49 21 49 35 0 22 -15 25
-38 9z"/>
<path d="M3795 4201 c-5 -10 32 -51 46 -51 18 0 20 23 3 41 -18 20 -39 25 -49
10z"/>
<path d="M2335 4189 c-109 -14 -136 -19 -202 -34 -157 -36 -294 -92 -458 -188
-383 -225 -654 -607 -757 -1068 -31 -140 -33 -449 -4 -604 114 -614 568 -1107
1170 -1270 50 -13 109 -27 131 -30 22 -3 46 -8 54 -11 7 -2 62 -7 122 -10
l109 -6 0 41 c0 36 -3 41 -22 41 -47 1 -242 23 -297 35 -136 27 -326 103 -461
184 -347 207 -607 556 -705 946 -33 131 -44 245 -40 410 2 88 6 173 10 190 3
16 13 60 21 99 109 518 513 962 1024 1124 147 47 145 46 231 57 30 3 62 8 71
11 26 8 274 7 333 0 171 -22 296 -55 436 -115 468 -202 812 -629 902 -1121 24
-130 27 -165 27 -300 -1 -125 -2 -142 -15 -222 -4 -24 -9 -54 -12 -68 -8 -53
-56 -209 -86 -279 -59 -144 -171 -326 -260 -421 -77 -85 -74 -77 -42 -110 l29
-30 33 37 c19 21 62 74 97 118 535 684 427 1670 -245 2230 -229 191 -507 314
-819 360 -62 10 -314 12 -375 4z"/>
<path d="M1118 4156 c-18 -13 -25 -46 -10 -46 16 0 52 32 52 46 0 17 -19 18
-42 0z"/>
<path d="M3934 4079 c-3 -6 5 -23 19 -37 23 -23 27 -24 33 -8 4 10 -1 25 -11
36 -21 23 -31 25 -41 9z"/>
<path d="M982 4027 c-15 -16 -18 -27 -12 -37 8 -13 14 -11 35 11 22 21 24 28
12 37 -11 9 -18 7 -35 -11z"/>
<path d="M3526 4011 c-9 -10 -16 -22 -16 -28 0 -6 28 -35 63 -64 102 -87 186
-170 240 -236 35 -44 57 -63 74 -63 30 0 41 41 20 73 -22 34 -236 249 -287
289 -59 46 -75 50 -94 29z"/>
<path d="M2321 4008 c-60 -9 -81 -22 -81 -48 0 -34 25 -42 102 -34 40 4 123 8
183 8 61 1 116 5 123 9 23 15 14 57 -15 68 -30 11 -232 10 -312 -3z"/>
<path d="M2926 3934 c-35 -34 -18 -56 74 -94 41 -17 115 -53 165 -79 86 -46
111 -51 127 -27 25 37 -2 61 -150 135 -72 37 -178 81 -194 81 -4 0 -14 -7 -22
-16z"/>
<path d="M4060 3937 c0 -8 9 -22 20 -32 16 -14 23 -16 32 -7 9 9 7 16 -7 32
-21 23 -45 26 -45 7z"/>
<path d="M867 3892 c-18 -19 -23 -52 -9 -52 5 0 18 11 31 23 18 20 19 26 8 35
-11 9 -18 8 -30 -6z"/>
<path d="M1870 3873 c-77 -37 -234 -136 -246 -154 -3 -6 -3 -21 0 -35 9 -36
47 -31 118 18 34 22 99 60 146 84 99 51 112 61 112 85 0 17 -27 39 -47 39 -4
0 -42 -17 -83 -37z"/>
<path d="M4176 3801 c-9 -14 4 -40 25 -51 26 -14 34 6 15 35 -17 26 -31 31
-40 16z"/>
<path d="M750 3735 c-10 -20 -11 -28 -2 -37 9 -9 15 -7 27 8 18 24 19 54 2 54
-8 0 -20 -11 -27 -25z"/>
<path d="M4282 3651 c-10 -6 -11 -13 -1 -34 12 -26 29 -34 42 -21 3 4 0 19 -9
35 -16 33 -15 32 -32 20z"/>
<path d="M662 3588 c-14 -14 -16 -44 -3 -53 11 -6 41 32 41 52 0 16 -22 17
-38 1z"/>
<path d="M3492 3568 c-22 -22 -13 -49 34 -101 25 -28 73 -92 105 -141 33 -50
66 -94 74 -99 22 -12 55 10 55 37 0 28 -101 181 -170 259 -51 57 -75 68 -98
45z"/>
<path d="M1764 3028 l1 -543 30 -2 c17 -1 57 -2 89 -4 54 -2 58 -3 40 -16 -12
-8 -20 -10 -22 -3 -2 5 -8 10 -14 10 -6 0 -3 -10 8 -22 19 -21 19 -21 -1 -14
-15 5 -17 4 -8 -5 13 -13 37 -3 28 12 -4 5 -2 9 4 9 21 0 19 -18 -4 -38 -14
-12 -25 -17 -25 -10 0 6 -3 9 -6 5 -3 -3 -2 -13 4 -22 8 -16 10 -16 16 1 7 18
8 18 22 0 8 -11 14 -15 14 -10 0 6 -5 15 -12 22 -20 20 6 14 28 -7 17 -15 23
-16 38 -5 18 13 46 9 57 -9 4 -5 6 3 5 19 -1 27 -36 92 -36 68 0 -6 3 -14 7
-18 11 -11 10 -47 -1 -43 -6 2 -12 14 -12 26 -1 23 -24 55 -24 34 0 -7 5 -15
11 -19 8 -4 7 -9 -2 -15 -18 -11 -32 -11 -25 0 8 13 -4 42 -15 35 -5 -3 -9 -1
-9 4 0 5 22 9 49 8 43 -1 54 -6 99 -48 27 -26 47 -49 44 -52 -3 -3 1 -6 9 -6
9 0 213 -199 455 -443 l439 -442 91 1 91 1 -2 -41 c-2 -48 3 -66 17 -66 7 0 6
5 -1 13 -17 21 -1 29 18 9 9 -10 12 -13 8 -6 -5 8 0 18 14 28 22 15 39 13 39
-5 0 -6 -4 -7 -10 -4 -5 3 -14 4 -20 0 -11 -7 -2 -35 12 -35 6 0 5 6 -2 15
-16 20 -1 19 20 0 18 -16 18 -17 8 72 -1 7 -5 10 -9 7 -4 -2 -10 -1 -13 4 -2
4 6 8 19 8 14 0 24 -6 24 -16 1 -8 2 -33 2 -54 1 -30 3 -36 11 -23 5 9 14 17
20 17 7 0 6 -5 -2 -15 -10 -12 -8 -13 11 -10 13 3 27 11 31 20 5 8 14 15 20
15 6 0 5 -7 -3 -17 -10 -11 -10 -14 -1 -9 6 4 12 2 12 -3 0 -6 5 -11 11 -11 8
0 8 5 -1 15 -7 8 -8 15 -2 15 5 0 15 -7 22 -15 7 -8 17 -15 23 -15 14 0 -31
38 -54 45 -11 4 -19 11 -19 16 0 6 5 7 10 4 15 -9 12 1 -4 14 -12 10 -14 8
-12 -14 2 -15 -1 -24 -7 -22 -6 2 -11 20 -12 40 0 35 -24 61 -510 548 -281
281 -504 508 -497 505 6 -4 12 -2 12 3 0 6 -8 11 -18 11 -16 0 -62 41 -62 55
0 15 22 1 32 -20 6 -14 15 -25 20 -25 5 0 2 10 -6 21 -8 12 -12 28 -9 37 5 11
2 14 -8 10 -8 -3 -23 -10 -34 -14 -11 -4 4 18 34 49 50 52 57 56 75 44 28 -19
30 -33 6 -33 -12 0 -19 5 -16 13 3 7 0 15 -6 19 -7 4 -8 3 -4 -4 4 -7 1 -12
-8 -12 -8 0 -18 -4 -21 -10 -3 -5 0 -7 8 -4 8 3 20 -2 27 -11 11 -13 9 -15
-11 -13 -20 3 -24 -2 -25 -27 0 -16 5 -39 13 -50 12 -18 13 -17 9 13 -2 21 0
31 8 29 6 -2 11 -17 12 -33 2 -57 3 -58 23 -36 10 12 21 18 25 15 4 -4 4 1 0
11 -5 14 -4 17 4 12 7 -4 15 -1 18 8 3 9 12 12 22 8 15 -5 15 -4 2 10 -9 8
-33 15 -55 15 -64 1 -75 3 -75 12 0 4 31 7 70 6 59 -2 67 0 52 11 -10 8 -12
13 -4 14 6 0 20 -8 30 -18 17 -17 19 -17 37 7 22 30 28 51 13 51 -6 0 -7 -7
-4 -16 3 -9 1 -14 -5 -12 -6 2 -10 8 -10 13 0 16 -30 28 -41 17 -14 -14 -1
-33 19 -30 9 2 18 -2 20 -9 6 -17 -37 -8 -56 12 -15 15 -14 18 8 36 12 10 28
16 34 12 18 -11 87 -10 80 1 -4 5 1 7 10 3 10 -3 17 -2 17 3 0 6 -7 10 -16 10
-18 0 -14 22 6 28 7 3 10 0 6 -6 -11 -18 19 -20 41 -3 21 17 20 18 -33 18 -30
0 -54 -4 -54 -9 0 -4 -5 -8 -11 -8 -5 0 -7 5 -4 10 3 6 1 10 -5 10 -7 0 -9 -7
-6 -16 5 -12 2 -15 -10 -10 -8 3 -18 6 -20 6 -2 0 -4 5 -4 11 0 5 4 7 10 4 5
-3 7 0 5 7 -4 11 13 13 83 13 88 -1 88 0 87 25 0 18 -5 24 -18 22 -21 -4 -23
14 -2 22 9 3 20 -3 27 -14 7 -11 17 -20 22 -20 6 0 5 5 -2 12 -21 21 -13 32
10 12 13 -10 18 -12 12 -4 -6 8 -10 50 -9 93 1 73 -5 92 -21 65 -5 -7 -3 -8 6
-3 8 5 11 4 6 -3 -4 -6 -14 -9 -24 -6 -13 4 -12 2 3 -8 11 -7 21 -22 23 -33 2
-18 1 -18 -18 4 -11 13 -20 18 -20 12 0 -6 -3 -10 -7 -8 -5 1 -9 -1 -10 -6 -6
-16 -2 -19 10 -8 11 8 14 5 14 -17 0 -27 -2 -29 -42 -26 -24 1 -49 -3 -56 -8
-10 -6 -6 -7 11 -2 22 6 23 5 12 -9 -8 -9 -20 -13 -28 -10 -8 3 -14 0 -14 -7
0 -6 -4 -8 -10 -5 -5 3 -10 11 -10 16 0 6 5 7 10 4 6 -3 10 0 10 8 0 7 11 19
25 25 14 6 25 16 25 22 0 6 5 8 11 4 8 -5 8 -9 -1 -14 -7 -5 -2 -7 14 -7 23 0
24 1 10 12 -20 14 -12 45 11 45 9 0 14 4 11 8 -3 5 5 17 17 28 17 15 37 19 90
19 41 0 66 -4 64 -10 -2 -5 -26 -9 -53 -9 l-50 2 -1 -49 c0 -27 4 -49 9 -49 5
0 6 5 2 11 -4 7 -1 10 7 7 8 -3 13 -17 13 -31 -1 -32 -1 -32 17 -10 12 14 12
16 0 8 -11 -6 -13 -4 -8 8 3 9 2 19 -3 22 -16 10 -11 21 10 21 15 0 18 -5 14
-18 -3 -10 0 -18 6 -18 6 0 8 5 5 10 -3 6 -1 10 6 10 7 0 5 8 -6 20 -18 20
-18 20 6 18 18 -2 24 2 24 16 0 11 5 21 12 23 14 5 9 -35 -7 -51 -5 -5 -10
-15 -10 -20 0 -6 8 1 18 17 10 15 20 26 23 24 2 -2 12 5 22 15 9 10 13 18 8
18 -6 0 -13 -4 -16 -10 -3 -5 -11 -10 -16 -10 -6 0 -7 5 -2 13 4 6 8 46 8 87
0 63 3 75 18 78 9 2 17 -2 17 -8 0 -6 -4 -9 -8 -6 -4 2 -8 -26 -8 -63 0 -65 1
-68 23 -68 22 0 23 0 6 12 -27 19 -20 95 8 95 6 0 7 -6 2 -12 -10 -17 -13 -67
-3 -73 4 -2 6 11 4 31 -2 30 0 33 12 23 9 -7 12 -20 8 -32 -4 -13 -2 -17 5
-13 6 4 11 15 11 25 0 24 11 33 25 21 9 -8 14 -6 18 4 4 11 1 13 -10 9 -23 -9
-7 14 19 28 18 10 20 9 15 -5 -9 -23 0 -20 14 5 8 17 8 20 -1 14 -8 -5 -11 -3
-8 6 3 8 12 13 22 11 9 -2 16 2 16 8 0 6 4 9 9 5 5 -3 13 0 17 6 11 18 -13 26
-70 24 l-54 -1 3 33 c2 18 0 31 -5 28 -4 -3 -6 -15 -4 -28 2 -12 2 -16 -2 -9
-3 6 -10 12 -16 12 -6 0 -6 -6 2 -15 12 -14 6 -35 -10 -35 -5 0 -7 8 -4 18 5
14 4 15 -5 2 -9 -13 -11 -13 -11 1 0 20 107 121 115 109 3 -5 -9 -19 -27 -30
-18 -11 -28 -20 -22 -20 6 0 10 -11 9 -25 -2 -14 1 -25 7 -25 5 0 6 10 2 22
-6 20 -5 21 9 9 9 -7 14 -17 11 -22 -3 -5 0 -9 5 -9 6 0 11 6 11 13 0 7 10 13
23 14 22 2 22 2 2 -14 -14 -11 -15 -14 -4 -10 9 3 26 -1 38 -9 13 -10 21 -11
21 -4 0 6 5 8 12 4 6 -4 8 -3 4 4 -3 5 0 13 6 15 9 4 10 6 1 6 -6 1 -15 -3
-18 -9 -3 -5 -11 -10 -17 -10 -6 0 -3 9 7 20 10 11 13 20 7 20 -7 0 -12 5 -12
10 0 6 8 10 18 8 9 -2 18 4 18 12 3 32 5 34 14 20 6 -10 4 -22 -5 -36 -12 -19
-12 -23 0 -28 10 -3 12 0 8 11 -4 9 -2 14 3 10 6 -3 16 -1 24 5 12 8 11 9 -3
4 -12 -4 -17 -2 -14 6 2 7 14 12 26 11 11 -2 21 2 21 8 0 5 -4 8 -9 5 -5 -3
-12 1 -15 10 -10 26 -7 27 18 11 22 -15 25 -15 41 3 12 13 14 24 8 37 -5 10
-8 30 -7 46 2 15 -1 27 -5 27 -4 0 -7 -17 -6 -37 0 -21 -3 -44 -8 -50 -11 -15
-37 -17 -37 -3 0 5 5 9 12 7 8 -1 12 14 13 41 1 26 -2 38 -7 30 -6 -10 -10
-10 -19 2 -8 12 -9 11 -5 -5 5 -21 -19 -63 -30 -52 -4 4 -2 12 3 19 14 18 12
45 -4 45 -9 0 -10 -4 -3 -12 7 -9 4 -20 -9 -36 -18 -22 -20 -22 -26 -7 -4 10
-11 15 -17 12 -5 -3 0 -13 11 -21 12 -8 21 -19 21 -25 0 -7 -5 -6 -15 2 -8 6
-18 9 -24 6 -5 -3 -12 0 -15 6 -3 7 -4 4 -3 -6 1 -10 -4 -21 -11 -23 -8 -3
-10 2 -6 14 5 14 4 15 -4 4 -7 -10 -6 -21 5 -37 14 -21 13 -23 -6 -21 -31 2
-21 54 17 84 30 23 182 174 182 180 0 2 -80 3 -179 2 l-178 -2 -69 -65 c-117
-110 -384 -363 -473 -447 -47 -44 -94 -89 -106 -100 -12 -11 -53 -49 -92 -85
-101 -94 -131 -120 -144 -120 -5 0 -7 -5 -3 -12 4 -7 3 -8 -4 -4 -7 4 -12 1
-12 -8 0 -8 -5 -18 -12 -22 -8 -5 -9 -2 -5 9 4 10 1 17 -5 17 -7 0 -3 7 8 16
10 8 14 13 7 10 -8 -4 -12 13 -15 54 -1 33 0 60 5 60 4 0 7 -5 7 -10 0 -6 5
-9 11 -8 6 2 14 -3 17 -11 2 -8 0 -11 -6 -7 -18 11 -25 -14 -8 -33 20 -22 21
-38 1 -21 -9 7 -15 8 -15 2 0 -15 29 -23 37 -9 5 7 14 12 21 12 6 0 12 4 11 9
0 5 5 13 13 18 10 8 10 9 -2 5 -8 -2 -14 -10 -12 -16 1 -6 -2 -11 -8 -11 -15
0 -12 19 8 48 25 37 38 63 20 41 -23 -28 -53 -8 -53 36 0 21 5 40 11 42 7 2
10 -7 8 -27 -2 -19 1 -30 9 -30 8 0 7 -4 -3 -10 -8 -5 -10 -10 -4 -10 17 0 37
27 31 42 -3 8 -6 5 -6 -6 -1 -30 -15 -9 -16 24 -1 18 3 29 9 27 6 -3 10 -10 8
-16 -1 -7 2 -10 8 -6 8 5 8 11 1 19 -7 9 -7 17 2 26 6 8 -1 6 -17 -4 -34 -21
-74 -27 -83 -13 -10 17 -9 67 2 64 13 -5 14 -40 2 -48 -5 -4 3 -6 19 -5 25 1
93 36 70 36 -5 0 -2 8 5 18 13 15 12 16 -3 3 -11 -8 -18 -9 -18 -3 0 6 5 14
11 18 8 4 8 9 1 13 -16 10 -24 63 -9 58 7 -3 11 -10 9 -16 -1 -7 2 -10 8 -6 8
5 8 11 1 19 -7 9 -7 17 2 26 6 8 -1 6 -17 -4 -34 -21 -74 -27 -83 -13 -10 17
-9 67 2 64 13 -5 14 -40 2 -48 -5 -4 3 -6 19 -5 25 1 93 36 70 36 -5 0 -2 8 5
18 13 15 12 16 -3 3 -20 -15 -25 -2 -6 17 7 7 8 12 2 12 -5 0 -10 9 -11 21 -2
18 0 19 14 7 14 -11 14 -9 -1 14 -13 20 -15 31 -7 46 8 15 7 21 -2 25 -9 3
-13 22 -11 59 2 39 0 47 -6 31 -11 -26 -14 -27 -41 -13 -13 7 -19 7 -19 0 0
-5 7 -10 15 -10 8 0 15 -5 15 -11 0 -6 -8 -9 -17 -7 -12 2 -18 13 -18 31 1 15
-2 27 -6 27 -4 0 -7 21 -7 48 0 26 0 52 -1 59 -1 8 -41 12 -139 12 l-139 1 1
-542z m352 352 c-2 -17 0 -33 5 -36 12 -7 11 -34 -1 -34 -5 0 -9 6 -7 13 1 7
-7 11 -20 10 -29 -3 -30 13 -1 20 12 4 19 9 16 12 -10 10 -50 -15 -45 -28 2
-7 14 -11 27 -9 19 2 21 0 10 -13 -7 -9 -19 -14 -27 -11 -7 3 -13 1 -13 -4 0
-6 9 -10 20 -10 11 0 20 -5 20 -10 0 -6 -8 -10 -17 -8 -13 2 -17 -3 -16 -17 1
-11 -4 -23 -10 -28 -8 -6 -7 -7 3 -4 9 2 14 14 12 27 -2 19 0 21 13 10 14 -12
14 -16 -1 -39 -9 -14 -11 -20 -3 -13 18 17 25 15 25 -8 0 -25 -8 -25 -36 -2
-19 15 -22 28 -23 105 -1 48 1 87 6 87 4 0 7 -4 7 -10 0 -6 10 -5 25 2 14 6
25 15 25 20 0 4 2 8 5 8 2 0 3 -14 1 -30z m1171 10 c1 -11 -2 -18 -7 -15 -4 3
-15 -6 -24 -20 -10 -15 -12 -25 -6 -25 6 0 8 -5 4 -11 -9 -16 -27 17 -19 34 4
6 -2 2 -12 -11 -14 -17 -21 -20 -30 -11 -13 13 -36 3 -28 -12 4 -5 1 -9 -4 -9
-14 0 -14 23 1 38 7 7 17 8 29 2 20 -11 35 3 23 21 -4 7 0 9 12 5 11 -3 26 -1
34 4 8 5 11 10 7 10 -10 0 1 20 11 20 4 0 8 -9 9 -20z m33 -45 c-7 -9 -15 -13
-18 -10 -3 2 1 11 8 20 7 9 15 13 18 10 3 -2 -1 -11 -8 -20z m-122 -27 c17
-17 15 -33 -3 -18 -16 13 -17 12 -19 -34 -1 -11 -7 -20 -14 -22 -7 -1 -8 0 -2
3 7 3 4 10 -7 19 -17 13 -17 15 2 30 11 8 19 20 18 25 -4 13 11 11 25 -3z
m-1078 -52 c-7 -9 -8 -16 -3 -16 13 0 10 -77 -4 -91 -7 -7 -17 -8 -28 -1 -12
6 -14 11 -6 16 6 4 11 2 11 -5 0 -8 4 -9 13 0 11 8 16 56 7 56 -1 0 -3 19 -5
43 -2 39 -1 42 13 28 13 -12 13 -18 2 -30z m1010 14 c0 -19 -28 -23 -48 -7
-10 8 -10 12 -1 18 21 12 49 6 49 -11z m-139 -76 c11 -10 23 -13 31 -8 18 12
68 13 68 2 0 -5 6 -6 13 -1 20 13 46 13 53 1 4 -6 3 -8 -4 -4 -6 3 -13 2 -17
-3 -3 -6 -12 -8 -19 -5 -9 3 -17 -3 -21 -15 -3 -12 -10 -21 -15 -21 -5 0 -21
-12 -34 -27 -21 -23 -28 -25 -38 -14 -10 11 -10 12 0 7 20 -12 14 8 -7 21 -16
10 -20 9 -25 -4 -4 -9 -9 -13 -13 -10 -3 4 0 14 8 23 11 14 10 19 -11 35 -21
15 -22 19 -7 19 10 0 20 -7 23 -15 4 -8 10 -12 15 -9 5 3 -1 14 -13 24 -13 11
-19 19 -14 20 5 0 17 -7 27 -16z m-58 -36 c-4 -7 -7 -23 -8 -35 0 -12 -3 -25
-7 -29 -5 -4 -8 -2 -8 5 0 9 -6 8 -22 -3 -23 -16 -34 -51 -19 -60 4 -3 7 6 5
19 -1 14 2 25 6 25 14 0 21 -18 11 -25 -6 -3 -8 -11 -5 -18 3 -10 -10 -13 -50
-13 l-55 1 72 72 c66 66 100 92 80 61z m-816 -67 c1 -9 4 -33 7 -53 5 -43 -13
-65 -40 -50 -11 6 -13 11 -5 16 6 4 11 2 11 -5 0 -8 4 -9 13 0 16 13 15 36 -3
74 -17 36 -34 36 -29 1 0 -4 -5 -11 -13 -16 -10 -8 -10 -9 2 -5 8 2 14 10 13
16 -2 6 2 11 7 11 6 0 10 -6 10 -13 0 -7 -4 -18 -10 -25 -7 -9 -7 -9 2 -2 18
15 24 12 24 -10 0 -25 -7 -25 -36 -2 -14 12 -23 30 -24 49 -1 28 2 30 34 30
25 0 36 -5 37 -16z m802 -10 c12 -8 12 -12 2 -25 -8 -9 -9 -16 -4 -16 5 0 9
-10 10 -22 l2 -23 -20 24 c-15 18 -17 26 -8 32 10 6 10 11 0 23 -15 17 -4 21
18 7z m-41 -100 c6 -1 12 -5 12 -10 0 -5 -19 -8 -42 -6 -42 4 -43 4 -18 -11
14 -9 18 -13 9 -10 -9 2 -21 0 -27 -6 -8 -8 -11 -4 -9 13 1 29 10 36 40 33 12
-1 28 -3 35 -3z m-804 -48 c-18 -18 -18 -24 0 -17 9 3 13 -3 13 -18 0 -35 13
-57 30 -51 13 5 13 3 4 -15 -7 -12 -16 -22 -21 -22 -5 0 -6 -8 -3 -17 6 -16 5
-16 -10 -4 -18 14 -24 37 -8 26 5 -3 13 0 17 6 4 7 -3 21 -18 33 -17 14 -27
34 -30 57 -3 32 -1 37 19 37 19 0 20 -2 7 -15z m687 -20 c6 -36 5 -53 -5 -55
-33 -4 -42 -4 -51 3 -6 4 -17 3 -25 -3 -13 -8 -13 -9 1 -5 12 4 16 -2 16 -22
0 -18 -6 -27 -17 -27 -13 0 -17 8 -16 27 1 15 5 31 9 35 10 10 51 13 57 3 3
-5 11 1 18 11 7 12 8 20 2 20 -5 0 -10 5 -10 10 0 12 19 14 21 3z m-136 -73
c7 11 35 2 35 -12 0 -6 -7 -8 -15 -5 -19 8 -30 -12 -16 -26 9 -9 10 -7 5 8 -7
18 -6 19 10 5 24 -19 46 -19 69 -1 10 9 17 10 17 3 0 -20 -25 -27 -102 -27
-83 -1 -96 9 -62 46 12 14 21 16 35 9 11 -7 20 -7 24 0z m-79 -79 c-8 -13 4
-42 15 -35 5 3 9 0 9 -6 0 -6 12 -3 28 8 26 19 28 19 28 2 0 -10 -4 -16 -8
-14 -4 3 -8 1 -8 -5 0 -8 -29 -9 -55 0 -16 5 -55 -11 -56 -24 -1 -7 -3 -19 -4
-27 -1 -8 -3 -20 -4 -27 -1 -12 -47 -11 -59 2 -4 5 0 6 8 3 9 -3 24 0 35 8 15
11 16 14 3 14 -19 0 -54 38 -44 48 4 4 11 7 15 7 3 0 24 19 46 43 32 36 40 41
47 28 5 -9 7 -20 4 -25z m144 -15 c0 -3 -4 -8 -10 -11 -5 -3 -10 -1 -10 4 0 6
5 11 10 11 6 0 10 -2 10 -4z m-140 -76 c0 -5 -4 -10 -10 -10 -5 0 -10 5 -10
10 0 6 5 10 10 10 6 0 10 -4 10 -10z m-100 -90 c0 -5 -2 -10 -4 -10 -3 0 -8 5
-11 10 -3 6 -1 10 4 10 6 0 11 -4 11 -10z m43 -7 c-3 -7 -8 -11 -13 -10 -4 1
-17 -9 -28 -23 -21 -25 -21 -25 -19 -2 1 12 9 25 19 28 10 3 16 9 13 14 -3 5
3 8 14 7 11 0 17 -6 14 -14z m-533 -133 c8 -5 11 -12 7 -16 -4 -4 -15 0 -24 9
-18 18 -8 23 17 7z m30 -40 c0 6 5 8 11 4 8 -5 6 -10 -5 -16 -18 -10 -56 6
-56 24 0 6 11 3 25 -6 15 -10 25 -12 25 -6z m1300 -931 c0 -4 -8 -13 -17 -20
-15 -12 -16 -12 -10 3 4 12 2 15 -8 12 -11 -5 -12 -10 -3 -24 12 -18 12 -18
26 1 17 25 29 24 43 -3 11 -21 11 -22 -5 -9 -14 12 -19 11 -35 -3 -32 -29 -54
-6 -42 45 2 7 51 6 51 -2z m105 -19 c1 -14 4 -31 9 -38 5 -8 3 -19 -4 -25 -9
-9 -11 -8 -8 3 2 9 -4 14 -14 14 -10 -1 -18 1 -18 4 0 2 8 11 18 19 15 13 15
14 0 9 -18 -5 -28 11 -20 32 8 22 37 9 37 -18z"/>
<path d="M3047 3187 c-2 -6 -12 -12 -23 -12 -26 0 -24 -30 2 -31 13 -1 21 5
20 14 0 8 5 17 12 19 8 3 10 -2 6 -14 -3 -10 -2 -14 3 -8 4 6 11 12 15 15 4 3
-1 11 -12 18 -14 9 -19 9 -23 -1z m-17 -27 c0 -5 -4 -10 -10 -10 -5 0 -10 5
-10 10 0 6 5 10 10 10 6 0 10 -4 10 -10z"/>
<path d="M2889 3133 c-13 -15 -12 -15 9 -4 23 12 28 21 13 21 -5 0 -15 -7 -22
-17z"/>
<path d="M2827 3067 c-10 -10 -17 -20 -15 -22 6 -6 40 24 37 32 -2 5 -12 0
-22 -10z"/>
<path d="M2060 2900 c0 -5 5 -10 11 -10 5 0 7 5 4 10 -3 6 -8 10 -11 10 -2 0
-4 -4 -4 -10z"/>
<path d="M2573 2839 c-6 -6 -9 -17 -6 -25 4 -10 9 -11 24 -1 10 6 19 16 19 21
0 6 -5 5 -12 -2 -17 -17 -33 -15 -18 3 14 17 9 20 -7 4z"/>
<path d="M2516 2781 c-7 -11 -4 -62 3 -55 6 6 11 64 5 64 -1 0 -5 -4 -8 -9z"/>
<path d="M2476 2724 c-12 -17 -15 -29 -8 -36 6 -6 12 -6 17 3 6 8 4 10 -5 4
-8 -5 -11 -3 -8 6 3 8 10 13 15 12 5 -1 10 7 10 18 2 24 2 24 -21 -7z"/>
<path d="M3365 1470 c-3 -6 1 -7 9 -4 18 7 21 14 7 14 -6 0 -13 -4 -16 -10z"/>
<path d="M1398 3499 c-40 -22 -198 -285 -198 -328 0 -23 31 -44 54 -35 8 3 36
44 61 91 25 47 69 116 97 154 38 53 49 75 44 93 -6 26 -35 38 -58 25z"/>
<path d="M4360 3471 c0 -27 30 -55 43 -42 7 7 7 18 -1 36 -14 29 -42 34 -42 6z"/>
<path d="M2080 3440 c18 -12 30 -13 30 -2 0 4 -10 9 -22 9 -18 2 -20 0 -8 -7z"/>
<path d="M3345 3415 c3 -49 10 -52 36 -16 12 17 25 28 29 26 4 -2 7 2 7 9 0 7
-6 13 -13 13 -7 0 -12 -5 -11 -10 1 -5 -4 -12 -11 -14 -6 -3 -10 1 -9 9 2 7 2
9 -1 5 -2 -4 -10 -3 -17 3 -10 8 -12 3 -10 -25z m29 -16 c-9 -16 -20 -10 -21
12 -2 17 1 18 12 9 8 -7 12 -16 9 -21z"/>
<path d="M580 3414 c-14 -35 -13 -44 5 -44 9 0 20 12 25 26 13 32 13 31 -5 38
-11 4 -19 -3 -25 -20z"/>
<path d="M2140 3420 c0 -5 5 -10 11 -10 5 0 7 5 4 10 -3 6 -8 10 -11 10 -2 0
-4 -4 -4 -10z"/>
<path d="M3206 3413 c-6 -14 -5 -15 5 -6 7 7 10 15 7 18 -3 3 -9 -2 -12 -12z"/>
<path d="M2140 3360 c0 -5 5 -10 11 -10 5 0 7 5 4 10 -3 6 -8 10 -11 10 -2 0
-4 -4 -4 -10z"/>
<path d="M4436 3323 c-11 -12 -6 -41 10 -58 23 -22 37 -5 25 27 -11 29 -25 41
-35 31z"/>
<path d="M4090 3274 c-11 -12 -6 -36 29 -142 23 -70 51 -176 61 -236 20 -109
31 -136 56 -136 22 0 43 29 38 53 -2 12 -7 39 -9 59 -15 111 -91 373 -117 406
-14 17 -43 15 -58 -4z"/>
<path d="M511 3243 c-10 -21 -9 -29 3 -41 14 -14 16 -13 26 12 13 36 13 43 -4
49 -8 3 -18 -5 -25 -20z"/>
<path d="M4492 3118 c3 -37 38 -55 38 -20 0 31 -11 52 -27 52 -10 0 -13 -9
-11 -32z"/>
<path d="M467 3083 c-4 -3 -7 -19 -7 -35 0 -35 27 -38 36 -4 8 35 -10 59 -29
39z"/>
<path d="M3806 3048 c-21 -12 -20 -32 4 -120 24 -89 29 -116 36 -193 8 -75 18
-95 49 -95 33 0 43 25 38 90 -5 59 -45 248 -61 291 -12 29 -41 41 -66 27z"/>
<path d="M4530 2941 c0 -33 16 -49 32 -33 14 14 1 62 -17 62 -10 0 -15 -10
-15 -29z"/>
<path d="M432 2893 c-13 -27 -9 -47 9 -51 11 -2 18 5 21 20 8 44 -13 66 -30
31z"/>
<path d="M1111 2882 c-11 -9 -23 -30 -25 -47 -15 -95 -18 -130 -21 -223 -2
-83 1 -107 14 -123 14 -17 21 -19 44 -10 27 10 27 11 28 113 0 57 2 112 5 123
3 16 13 96 16 125 4 45 -29 69 -61 42z"/>
<path d="M2790 2890 c0 -5 5 -10 10 -10 6 0 10 5 10 10 0 6 -4 10 -10 10 -5 0
-10 -4 -10 -10z"/>
<path d="M2790 2860 c0 -5 5 -10 10 -10 6 0 10 5 10 10 0 6 -4 10 -10 10 -5 0
-10 -4 -10 -10z"/>
<path d="M4554 2776 c-9 -24 0 -51 19 -54 15 -3 18 2 15 29 -3 35 -24 51 -34
25z"/>
<path d="M416 2723 c-9 -10 -7 -61 3 -67 12 -8 27 14 29 41 1 21 -20 38 -32
26z"/>
<path d="M2610 2679 c0 -5 5 -7 10 -4 6 3 10 8 10 11 0 2 -4 4 -10 4 -5 0 -10
-5 -10 -11z"/>
<path d="M2360 2635 c-7 -9 -8 -15 -2 -15 5 0 12 7 16 15 3 8 4 15 2 15 -2 0
-9 -7 -16 -15z"/>
<path d="M4567 2603 c-4 -3 -7 -22 -7 -40 0 -27 4 -34 17 -31 11 2 18 13 18
31 2 27 -16 53 -28 40z"/>
<path d="M410 2505 c0 -24 5 -35 15 -35 15 0 18 5 18 35 0 30 -3 35 -18 35
-10 0 -15 -11 -15 -35z"/>
<path d="M2057 2445 c10 -13 22 -25 27 -25 5 0 -1 11 -14 25 -30 32 -36 32
-13 0z"/>
<path d="M4556 2413 c-10 -10 -7 -61 3 -68 12 -7 21 7 27 39 4 23 -16 42 -30
29z"/>
<path d="M2070 2402 c0 -5 7 -9 15 -9 8 0 15 4 15 9 0 4 -7 8 -15 8 -8 0 -15
-4 -15 -8z"/>
<path d="M2107 2386 c-4 -10 -1 -13 8 -9 8 3 12 9 9 14 -7 12 -11 11 -17 -5z"/>
<path d="M427 2352 c-3 -4 -4 -17 -2 -28 2 -10 4 -22 4 -26 1 -5 8 -8 17 -8
11 0 14 8 12 32 -3 31 -21 48 -31 30z"/>
<path d="M4531 2221 c-15 -27 -14 -48 3 -54 19 -8 26 1 26 34 0 35 -16 46 -29
20z"/>
<path d="M1768 2228 c0 -2 -2 -168 -3 -370 l-2 -368 62 0 62 0 -2 -56 c-2 -30
-1 -53 2 -50 4 3 7 27 9 53 1 27 3 49 3 51 2 5 31 -26 31 -33 0 -3 -4 -3 -10
0 -5 3 -10 2 -10 -3 0 -6 7 -12 15 -16 8 -3 15 -11 15 -17 0 -8 -4 -8 -15 1
-10 9 -15 9 -15 1 0 -6 5 -11 10 -11 6 0 10 -5 10 -11 0 -5 -4 -7 -10 -4 -5 3
-10 1 -10 -4 0 -18 10 -13 41 20 16 17 33 28 39 24 15 -9 12 -25 -4 -19 -8 3
-19 -3 -24 -13 -9 -15 -7 -19 9 -20 11 -1 23 5 26 13 3 7 9 11 14 8 5 -3 7
-10 4 -15 -4 -5 -1 -9 4 -9 14 0 14 13 0 27 -12 12 -4 33 12 33 6 0 8 -4 4
-10 -7 -11 16 -50 29 -50 4 0 3 6 -3 14 -17 20 -23 58 -8 53 7 -2 11 -12 9
-21 -2 -9 4 -19 12 -22 9 -3 14 -9 11 -13 -2 -4 9 -7 25 -7 17 0 26 4 23 10
-4 6 1 7 12 2 13 -5 10 1 -8 18 -27 25 -35 46 -17 46 6 0 10 -6 10 -14 0 -8 7
-17 16 -20 14 -5 15 -4 4 9 -7 8 -9 15 -4 15 5 0 2 5 -6 10 -8 5 -22 7 -30 5
-12 -4 -16 2 -15 22 0 14 6 28 13 31 7 2 10 -2 6 -11 -3 -8 0 -18 6 -22 7 -4
9 2 6 20 -3 18 -1 25 7 22 7 -3 11 -10 9 -16 -1 -7 2 -10 8 -6 8 5 8 11 1 19
-7 9 -7 17 2 26 6 8 -1 6 -17 -4 -34 -21 -74 -27 -83 -13 -10 17 -9 67 2 64
13 -5 14 -40 2 -48 -5 -4 3 -6 19 -5 25 1 93 36 70 36 -5 0 -2 8 5 18 13 15
12 16 -3 3 -20 -15 -25 -2 -6 17 7 7 8 12 2 12 -5 0 -10 9 -11 21 -2 18 0 19
14 7 14 -11 14 -9 -1 14 -13 20 -15 31 -7 46 8 15 7 21 -3 25 -18 7 -14 42 8
66 11 13 14 21 6 26 -5 3 -8 10 -5 15 7 11 -22 21 -41 13 -14 -5 -15 -3 -5 15
7 12 16 22 22 22 6 0 7 -5 3 -12 -4 -7 -3 -8 4 -4 7 4 17 17 22 29 10 19 9 20
-2 6 -23 -29 -53 -8 -53 36 0 21 5 40 11 42 7 2 10 -7 8 -27 -2 -19 1 -30 9
-30 8 0 7 -4 -3 -10 -8 -5 -10 -10 -4 -10 17 0 37 27 31 42 -3 8 -6 5 -6 -6
-1 -30 -15 -9 -16 24 -1 18 3 29 9 27 6 -3 10 -10 8 -16 -1 -7 2 -10 8 -6 8 5
8 11 1 19 -7 9 -7 17 2 26 6 8 -1 6 -17 -4 -34 -22 -74 -27 -83 -12 -11 17
-12 36 -3 36 15 0 21 -18 8 -23 -7 -2 1 -4 17 -3 33 1 68 23 73 44 1 8 -2 11
-8 7 -10 -6 -14 6 -11 35 1 9 -1 11 -6 5 -4 -6 -17 -10 -29 -9 -12 1 -27 -8
-33 -19 -12 -18 -12 -19 10 -3 30 21 35 20 35 -3 0 -29 -59 -23 -61 6 -1 12 3
19 8 16 6 -4 7 -1 1 8 -5 8 -10 32 -10 54 -1 22 -2 46 -3 53 -1 9 -35 12 -136
12 -74 0 -136 -1 -137 -2z m350 -184 c-8 -8 -22 -12 -31 -8 -18 7 -23 24 -7
24 6 0 10 -5 10 -11 0 -8 4 -8 14 1 8 6 12 19 10 28 -4 13 -3 13 6 -2 10 -14
9 -21 -2 -32z m-44 -61 c-18 -18 -18 -24 0 -17 9 3 13 -2 12 -18 -1 -13 2 -28
6 -34 10 -14 -1 -46 -12 -39 -17 11 -21 -17 -6 -34 20 -22 21 -38 1 -21 -8 7
-15 9 -15 5 0 -4 8 -14 18 -22 16 -13 16 -14 -3 -11 -17 3 -21 13 -25 61 -3
31 -2 57 2 57 5 0 8 -4 8 -8 0 -5 7 -9 16 -9 13 0 12 3 -4 16 -11 9 -22 32
-24 52 -3 32 -1 37 19 37 19 0 20 -2 7 -15z m53 -163 c4 0 2 5 -5 12 -15 15
-16 28 -2 28 6 0 10 -6 10 -14 0 -8 5 -16 11 -18 6 -2 0 -12 -12 -23 -12 -11
-19 -14 -15 -8 5 9 2 11 -9 7 -10 -4 -14 -2 -10 8 3 8 -1 21 -10 28 -8 7 -15
18 -15 24 0 6 12 -1 25 -16 13 -16 27 -28 32 -28z m-67 -40 c0 -7 7 -7 20 0
24 13 44 4 36 -16 -3 -7 -1 -16 4 -19 13 -8 13 -35 0 -35 -5 0 -9 6 -7 13 1 7
-7 11 -20 10 -29 -3 -30 13 -1 20 12 4 19 9 16 12 -10 10 -50 -15 -45 -28 2
-7 14 -11 27 -9 19 2 21 0 10 -13 -7 -9 -19 -14 -27 -11 -7 3 -13 1 -13 -4 0
-6 9 -10 20 -10 11 0 20 -5 20 -10 0 -6 -8 -10 -17 -8 -13 2 -17 -3 -16 -17 1
-11 -4 -23 -10 -28 -8 -6 -7 -7 3 -4 9 2 14 14 12 27 -2 19 0 21 13 10 14 -12
14 -16 -1 -39 -9 -14 -11 -20 -3 -13 18 17 25 15 25 -8 0 -25 -8 -25 -36 -2
-19 15 -22 28 -23 105 -1 48 1 87 6 87 4 0 7 -5 7 -10z m60 -114 c-7 -9 -8
-16 -3 -16 13 0 10 -77 -4 -91 -7 -7 -17 -8 -28 -1 -12 6 -14 11 -6 16 6 4 11
2 11 -5 0 -8 4 -9 13 0 11 8 16 56 7 56 -1 0 -3 19 -5 43 -2 39 -1 42 13 28
13 -12 13 -18 2 -30z m-43 -163 c-29 -37 -70 -72 -78 -68 -13 9 1 34 16 29 15
-6 39 31 31 45 -3 5 5 9 18 9 20 0 22 -3 13 -15z m-77 -25 c0 -4 -9 -17 -21
-29 -21 -21 -46 -21 -41 1 1 7 -2 18 -8 25 -8 9 -1 12 30 12 22 0 40 -4 40 -9z
m30 2 c0 -5 -4 -10 -10 -10 -5 0 -10 5 -10 10 0 6 5 10 10 10 6 0 10 -4 10
-10z m60 0 c0 -5 -4 -10 -9 -10 -5 0 4 -14 20 -32 19 -20 26 -35 20 -41 -12
-12 -34 1 -25 15 4 6 -3 18 -15 27 -14 11 -20 23 -15 34 7 18 24 23 24 7z m0
-60 c0 -5 -4 -10 -10 -10 -5 0 -10 5 -10 10 0 6 5 10 10 10 6 0 10 -4 10 -10z
m-100 -20 c0 -5 -4 -10 -10 -10 -5 0 -10 5 -10 10 0 6 5 10 10 10 6 0 10 -4
10 -10z"/>
<path d="M2060 1940 c0 -5 5 -10 11 -10 5 0 7 5 4 10 -3 6 -8 10 -11 10 -2 0
-4 -4 -4 -10z"/>
<path d="M1953 1462 c1 -14 5 -18 11 -12 7 7 6 14 -1 21 -9 9 -12 7 -10 -9z"/>
<path d="M1131 2201 c-14 -26 12 -105 85 -258 51 -107 56 -113 84 -113 49 0
54 33 16 100 -17 30 -52 107 -77 170 -41 102 -49 115 -72 118 -18 2 -29 -3
-36 -17z"/>
<path d="M455 2169 c-11 -16 4 -59 20 -59 15 0 20 26 9 54 -7 18 -20 21 -29 5z"/>
<path d="M4489 2036 c-15 -33 -5 -63 16 -46 17 14 20 56 5 65 -5 3 -15 -5 -21
-19z"/>
<path d="M497 1988 c-7 -20 11 -58 28 -58 17 0 20 23 5 51 -12 22 -26 25 -33
7z"/>
<path d="M2145 1880 c-3 -5 -1 -10 4 -10 6 0 11 5 11 10 0 6 -2 10 -4 10 -3 0
-8 -4 -11 -10z"/>
<path d="M4430 1861 c-14 -28 -13 -51 4 -51 15 0 39 54 29 64 -11 11 -22 6
-33 -13z"/>
<path d="M563 1824 c-15 -7 4 -64 21 -64 21 0 24 10 13 41 -12 30 -13 31 -34
23z"/>
<path d="M2140 1760 c0 -5 5 -10 11 -10 5 0 7 5 4 10 -3 6 -8 10 -11 10 -2 0
-4 -4 -4 -10z"/>
<path d="M3949 1678 c-59 -91 -140 -195 -222 -280 -49 -52 -58 -69 -46 -91 18
-32 50 -19 116 51 65 68 180 215 222 284 29 48 25 82 -10 86 -22 3 -32 -5 -60
-50z"/>
<path d="M4356 1685 c-16 -25 -14 -45 4 -45 12 0 41 56 33 64 -11 11 -20 6
-37 -19z"/>
<path d="M635 1651 c-8 -14 16 -61 32 -61 16 0 17 24 3 51 -12 20 -25 25 -35
10z"/>
<path d="M4266 1521 c-12 -22 -13 -32 -4 -37 13 -8 51 33 45 49 -7 23 -27 17
-41 -12z"/>
<path d="M726 1491 c-4 -6 1 -22 10 -36 13 -20 19 -23 31 -14 11 10 11 15 0
32 -16 25 -33 32 -41 18z"/>
<path d="M2140 1480 c0 -5 5 -10 11 -10 5 0 7 5 4 10 -3 6 -8 10 -11 10 -2 0
-4 -4 -4 -10z"/>
<path d="M3070 1474 c0 -6 10 -19 22 -30 19 -15 20 -16 9 -1 -15 19 -2 24 17
5 8 -8 9 -15 1 -25 -18 -20 -1 -15 21 7 25 25 35 25 37 -1 2 -16 -1 -18 -11
-10 -10 9 -15 7 -20 -5 -4 -9 -4 -19 -1 -22 3 -3 5 0 5 6 0 7 5 12 10 12 6 0
10 -6 10 -14 0 -9 9 -14 20 -13 11 1 20 5 20 10 0 5 -7 6 -16 3 -10 -4 -14 -2
-11 6 2 7 10 12 16 11 6 -2 11 2 11 7 0 5 -6 10 -13 10 -7 0 -13 10 -14 23 -2
21 -1 21 12 3 13 -18 14 -18 12 2 -1 23 -13 23 -47 -1 -24 -17 -26 -17 -42 3
-11 14 -19 17 -24 9 -4 -8 -9 -7 -15 2 -5 8 -9 9 -9 3z"/>
<path d="M3130 1466 c7 -7 13 -7 20 0 6 6 3 10 -10 10 -13 0 -16 -4 -10 -10z"/>
<path d="M1172 1444 c-20 -14 -21 -17 -8 -43 34 -64 340 -321 383 -321 28 0
45 15 41 36 -2 10 -47 51 -100 91 -53 40 -139 113 -191 163 -52 49 -96 90 -99
90 -2 0 -14 -7 -26 -16z"/>
<path d="M4171 1378 c-24 -25 -26 -34 -10 -43 12 -8 49 23 49 41 0 24 -19 25
-39 2z"/>
<path d="M825 1341 c-3 -5 6 -22 19 -38 22 -25 25 -26 31 -10 5 11 1 25 -10
37 -20 22 -31 25 -40 11z"/>
<path d="M4056 1234 c-20 -19 -21 -44 -2 -44 17 0 48 39 40 52 -8 12 -21 10
-38 -8z"/>
<path d="M944 1199 c-3 -6 5 -23 19 -37 23 -23 27 -24 33 -8 4 10 -1 25 -11
36 -21 23 -31 25 -41 9z"/>
<path d="M3920 1095 c-7 -8 -9 -22 -6 -31 6 -15 9 -15 29 -1 29 19 35 47 9 47
-11 0 -25 -7 -32 -15z"/>
<path d="M3235 1044 c-49 -24 -148 -63 -220 -85 -71 -23 -136 -46 -142 -52
-32 -24 3 -71 45 -61 138 33 433 154 454 187 12 20 -12 58 -37 56 -5 0 -50
-21 -100 -45z"/>
<path d="M1075 1069 c-4 -6 3 -21 16 -35 17 -18 25 -21 36 -13 10 9 11 15 1
26 -19 23 -46 34 -53 22z"/>
<path d="M3790 975 c-16 -17 -20 -29 -14 -35 12 -12 54 15 54 35 0 25 -17 25
-40 0z"/>
<path d="M1215 949 c-8 -12 23 -49 41 -49 24 0 25 19 2 39 -25 24 -34 26 -43
10z"/>
<path d="M1948 938 c-26 -26 -8 -55 45 -68 23 -6 51 -14 62 -17 11 -4 25 -8
30 -9 6 -1 35 -6 65 -12 85 -17 184 -30 251 -33 55 -3 69 5 69 37 0 31 -21 39
-125 48 -121 11 -151 16 -269 45 -107 27 -110 27 -128 9z"/>
<path d="M3638 866 c-23 -17 -23 -36 0 -36 18 0 52 29 52 43 0 12 -34 7 -52
-7z"/>
<path d="M1366 842 c-7 -11 5 -27 31 -41 29 -15 41 4 17 30 -18 20 -39 25 -48
11z"/>
<path d="M3488 774 c-31 -16 -35 -29 -13 -37 19 -8 63 28 50 42 -7 6 -19 5
-37 -5z"/>
<path d="M1524 748 c-8 -13 22 -38 48 -38 27 0 22 25 -7 38 -32 15 -32 15 -41
0z"/>
<path d="M3313 693 c-16 -6 -17 -29 -3 -38 14 -9 62 23 55 35 -6 10 -31 12
-52 3z"/>
<path d="M1690 665 c0 -19 49 -40 62 -27 12 12 -18 42 -43 42 -10 0 -19 -7
-19 -15z"/>
<path d="M3151 627 c-13 -7 -23 -16 -23 -22 2 -16 35 -17 55 -2 16 11 17 15 5
24 -10 9 -20 9 -37 0z"/>
<path d="M1867 613 c-13 -13 -7 -24 20 -34 29 -11 55 3 38 20 -15 13 -50 22
-58 14z"/>
<path d="M2980 580 c-26 -6 -41 -40 -18 -40 29 0 58 13 58 26 0 18 -11 22 -40
14z"/>
<path d="M2042 553 c4 -23 68 -32 68 -10 0 16 -21 27 -52 27 -13 0 -18 -6 -16
-17z"/>
<path d="M2793 543 c-25 -5 -31 -28 -10 -36 18 -7 59 11 55 25 -5 14 -15 17
-45 11z"/>
<path d="M2222 523 c4 -23 68 -32 68 -10 0 16 -21 27 -52 27 -13 0 -18 -6 -16
-17z"/>
<path d="M2410 520 c-20 -12 -2 -30 31 -30 19 0 29 5 29 15 0 8 -3 15 -7 16
-5 0 -15 2 -24 4 -9 1 -22 -1 -29 -5z"/>
<path d="M2589 514 c-9 -10 -7 -15 4 -20 25 -9 62 0 62 16 0 19 -51 22 -66 4z"/>
<path d="M690 4258 c-171 -189 -298 -375 -405 -592 -112 -229 -171 -410 -215
-661 -29 -169 -32 -206 -32 -415 0 -235 6 -300 47 -505 57 -284 166 -560 318
-805 182 -292 467 -580 771 -779 239 -156 620 -306 871 -344 37 -6 89 -15 135
-23 60 -11 562 -14 620 -4 61 11 214 38 245 44 42 8 144 37 230 65 235 76 506
218 714 374 87 65 323 290 397 377 158 190 289 401 383 622 50 117 124 341
135 409 3 20 8 42 10 50 3 8 8 32 11 53 3 21 7 48 10 60 15 66 28 209 29 325
1 56 -2 65 -20 71 -11 5 -26 5 -32 1 -6 -4 -13 -53 -17 -116 -3 -61 -8 -123
-10 -140 -3 -16 -7 -51 -10 -77 -10 -96 -58 -296 -101 -428 -52 -160 -176
-415 -268 -553 -270 -404 -653 -721 -1089 -902 -76 -31 -206 -76 -222 -76 -2
0 -24 -7 -47 -15 -37 -13 -182 -46 -258 -59 -174 -28 -429 -38 -610 -22 -716
63 -1379 461 -1781 1070 -217 328 -351 711 -386 1100 -14 154 -8 413 12 562
44 317 186 695 361 961 56 85 246 329 261 336 5 2 19 15 32 30 24 27 24 28 6
48 -10 11 -23 20 -29 20 -6 -1 -36 -28 -66 -62z"/>
</g>
</svg>
